<mxfile host="app.diagrams.net" modified="2024-05-10T17:19:07.387Z" agent="Mozilla/5.0 (Windows NT 10.0; Win64; x64) AppleWebKit/537.36 (KHTML, like Gecko) Chrome/124.0.0.0 Safari/537.36" etag="1VlZgf1JkHy9PLxJkc9U" version="24.3.1" type="device">
  <diagram name="Page-1" id="hXD_X3mhvy2m2J4J_gic">
    <mxGraphModel dx="1222" dy="646" grid="1" gridSize="10" guides="1" tooltips="1" connect="1" arrows="1" fold="1" page="1" pageScale="1" pageWidth="850" pageHeight="1100" math="0" shadow="0">
      <root>
        <mxCell id="0" />
        <mxCell id="1" parent="0" />
        <mxCell id="qIsz3Cx6Iyp0Fplk25JB-41" value="UserProfile" style="swimlane;fontStyle=1;align=center;verticalAlign=top;childLayout=stackLayout;horizontal=1;startSize=26;horizontalStack=0;resizeParent=1;resizeParentMax=0;resizeLast=0;collapsible=1;marginBottom=0;whiteSpace=wrap;html=1;fillColor=#a20025;fontColor=#ffffff;strokeColor=#6F0000;" vertex="1" parent="1">
          <mxGeometry x="770" y="10" width="190" height="126" as="geometry" />
        </mxCell>
        <mxCell id="qIsz3Cx6Iyp0Fplk25JB-42" value="&lt;div&gt;+ email: string&amp;nbsp;&lt;/div&gt;&lt;div&gt;+ name: string&lt;/div&gt;&lt;div&gt;+ degree: string&lt;/div&gt;&lt;div&gt;+ graduationYear: string&lt;/div&gt;" style="text;strokeColor=none;fillColor=none;align=left;verticalAlign=top;spacingLeft=4;spacingRight=4;overflow=hidden;rotatable=0;points=[[0,0.5],[1,0.5]];portConstraint=eastwest;whiteSpace=wrap;html=1;" vertex="1" parent="qIsz3Cx6Iyp0Fplk25JB-41">
          <mxGeometry y="26" width="190" height="64" as="geometry" />
        </mxCell>
        <mxCell id="qIsz3Cx6Iyp0Fplk25JB-43" value="" style="line;strokeWidth=1;fillColor=none;align=left;verticalAlign=middle;spacingTop=-1;spacingLeft=3;spacingRight=3;rotatable=0;labelPosition=right;points=[];portConstraint=eastwest;strokeColor=inherit;" vertex="1" parent="qIsz3Cx6Iyp0Fplk25JB-41">
          <mxGeometry y="90" width="190" height="10" as="geometry" />
        </mxCell>
        <mxCell id="qIsz3Cx6Iyp0Fplk25JB-44" value="+ displayProfile(): void" style="text;strokeColor=none;fillColor=none;align=left;verticalAlign=top;spacingLeft=4;spacingRight=4;overflow=hidden;rotatable=0;points=[[0,0.5],[1,0.5]];portConstraint=eastwest;whiteSpace=wrap;html=1;" vertex="1" parent="qIsz3Cx6Iyp0Fplk25JB-41">
          <mxGeometry y="100" width="190" height="26" as="geometry" />
        </mxCell>
        <mxCell id="qIsz3Cx6Iyp0Fplk25JB-49" value="UserAccount&amp;nbsp;" style="swimlane;fontStyle=1;align=center;verticalAlign=top;childLayout=stackLayout;horizontal=1;startSize=26;horizontalStack=0;resizeParent=1;resizeParentMax=0;resizeLast=0;collapsible=1;marginBottom=0;whiteSpace=wrap;html=1;fillColor=#a20025;fontColor=#ffffff;strokeColor=#6F0000;" vertex="1" parent="1">
          <mxGeometry x="70" y="20" width="190" height="210" as="geometry" />
        </mxCell>
        <mxCell id="qIsz3Cx6Iyp0Fplk25JB-50" value="&lt;div&gt;+ email: string&lt;/div&gt;&lt;div&gt;+ password: string&lt;/div&gt;&lt;div&gt;+ name: string&lt;/div&gt;&lt;div&gt;+ degree: string&lt;/div&gt;&lt;div&gt;+ graduationYear: string&lt;/div&gt;" style="text;strokeColor=none;fillColor=none;align=left;verticalAlign=top;spacingLeft=4;spacingRight=4;overflow=hidden;rotatable=0;points=[[0,0.5],[1,0.5]];portConstraint=eastwest;whiteSpace=wrap;html=1;" vertex="1" parent="qIsz3Cx6Iyp0Fplk25JB-49">
          <mxGeometry y="26" width="190" height="84" as="geometry" />
        </mxCell>
        <mxCell id="qIsz3Cx6Iyp0Fplk25JB-51" value="" style="line;strokeWidth=1;fillColor=none;align=left;verticalAlign=middle;spacingTop=-1;spacingLeft=3;spacingRight=3;rotatable=0;labelPosition=right;points=[];portConstraint=eastwest;strokeColor=inherit;" vertex="1" parent="qIsz3Cx6Iyp0Fplk25JB-49">
          <mxGeometry y="110" width="190" height="10" as="geometry" />
        </mxCell>
        <mxCell id="qIsz3Cx6Iyp0Fplk25JB-52" value="&lt;div&gt;+ login(email, password): bool&amp;nbsp;&lt;/div&gt;&lt;div&gt;+ register(email, password, name, degree, graduationYear): bool&amp;nbsp;&lt;/div&gt;&lt;div&gt;+ updateProfile(name, degree, graduationYear): bool&lt;/div&gt;" style="text;strokeColor=none;fillColor=none;align=left;verticalAlign=top;spacingLeft=4;spacingRight=4;overflow=hidden;rotatable=0;points=[[0,0.5],[1,0.5]];portConstraint=eastwest;whiteSpace=wrap;html=1;" vertex="1" parent="qIsz3Cx6Iyp0Fplk25JB-49">
          <mxGeometry y="120" width="190" height="90" as="geometry" />
        </mxCell>
        <mxCell id="qIsz3Cx6Iyp0Fplk25JB-61" value="Connection" style="swimlane;fontStyle=1;align=center;verticalAlign=top;childLayout=stackLayout;horizontal=1;startSize=26;horizontalStack=0;resizeParent=1;resizeParentMax=0;resizeLast=0;collapsible=1;marginBottom=0;whiteSpace=wrap;html=1;fillColor=#a20025;fontColor=#ffffff;strokeColor=#6F0000;" vertex="1" parent="1">
          <mxGeometry x="850" y="480" width="160" height="140" as="geometry" />
        </mxCell>
        <mxCell id="qIsz3Cx6Iyp0Fplk25JB-62" value="&lt;div&gt;- user1: string&lt;/div&gt;&lt;div&gt;- user2: string&lt;/div&gt;&lt;div&gt;- status: string&lt;/div&gt;" style="text;strokeColor=none;fillColor=none;align=left;verticalAlign=top;spacingLeft=4;spacingRight=4;overflow=hidden;rotatable=0;points=[[0,0.5],[1,0.5]];portConstraint=eastwest;whiteSpace=wrap;html=1;" vertex="1" parent="qIsz3Cx6Iyp0Fplk25JB-61">
          <mxGeometry y="26" width="160" height="54" as="geometry" />
        </mxCell>
        <mxCell id="qIsz3Cx6Iyp0Fplk25JB-63" value="" style="line;strokeWidth=1;fillColor=none;align=left;verticalAlign=middle;spacingTop=-1;spacingLeft=3;spacingRight=3;rotatable=0;labelPosition=right;points=[];portConstraint=eastwest;strokeColor=inherit;" vertex="1" parent="qIsz3Cx6Iyp0Fplk25JB-61">
          <mxGeometry y="80" width="160" height="8" as="geometry" />
        </mxCell>
        <mxCell id="qIsz3Cx6Iyp0Fplk25JB-64" value="&lt;div&gt;+ sendRequest(): void&lt;/div&gt;&lt;div&gt;+ acceptRequest(): void&lt;/div&gt;&lt;div&gt;+ rejectRequest(): void&lt;/div&gt;" style="text;strokeColor=none;fillColor=none;align=left;verticalAlign=top;spacingLeft=4;spacingRight=4;overflow=hidden;rotatable=0;points=[[0,0.5],[1,0.5]];portConstraint=eastwest;whiteSpace=wrap;html=1;" vertex="1" parent="qIsz3Cx6Iyp0Fplk25JB-61">
          <mxGeometry y="88" width="160" height="52" as="geometry" />
        </mxCell>
        <mxCell id="qIsz3Cx6Iyp0Fplk25JB-65" value="Message" style="swimlane;fontStyle=1;align=center;verticalAlign=top;childLayout=stackLayout;horizontal=1;startSize=26;horizontalStack=0;resizeParent=1;resizeParentMax=0;resizeLast=0;collapsible=1;marginBottom=0;whiteSpace=wrap;html=1;fillColor=#a20025;fontColor=#ffffff;strokeColor=#6F0000;" vertex="1" parent="1">
          <mxGeometry x="510" y="485" width="187.5" height="130" as="geometry" />
        </mxCell>
        <mxCell id="qIsz3Cx6Iyp0Fplk25JB-66" value="&lt;div&gt;- sender: string&lt;/div&gt;&lt;div&gt;- recipient: string&lt;/div&gt;&lt;div&gt;- text: string&lt;/div&gt;" style="text;strokeColor=none;fillColor=none;align=left;verticalAlign=top;spacingLeft=4;spacingRight=4;overflow=hidden;rotatable=0;points=[[0,0.5],[1,0.5]];portConstraint=eastwest;whiteSpace=wrap;html=1;" vertex="1" parent="qIsz3Cx6Iyp0Fplk25JB-65">
          <mxGeometry y="26" width="187.5" height="54" as="geometry" />
        </mxCell>
        <mxCell id="qIsz3Cx6Iyp0Fplk25JB-67" value="" style="line;strokeWidth=1;fillColor=none;align=left;verticalAlign=middle;spacingTop=-1;spacingLeft=3;spacingRight=3;rotatable=0;labelPosition=right;points=[];portConstraint=eastwest;strokeColor=inherit;" vertex="1" parent="qIsz3Cx6Iyp0Fplk25JB-65">
          <mxGeometry y="80" width="187.5" height="8" as="geometry" />
        </mxCell>
        <mxCell id="qIsz3Cx6Iyp0Fplk25JB-68" value="&lt;div&gt;+ sendMessage(): void&amp;nbsp;&lt;/div&gt;&lt;div&gt;+ receiveMessage(): void&lt;/div&gt;" style="text;strokeColor=none;fillColor=none;align=left;verticalAlign=top;spacingLeft=4;spacingRight=4;overflow=hidden;rotatable=0;points=[[0,0.5],[1,0.5]];portConstraint=eastwest;whiteSpace=wrap;html=1;" vertex="1" parent="qIsz3Cx6Iyp0Fplk25JB-65">
          <mxGeometry y="88" width="187.5" height="42" as="geometry" />
        </mxCell>
        <mxCell id="qIsz3Cx6Iyp0Fplk25JB-70" value="Announcement" style="swimlane;fontStyle=1;align=center;verticalAlign=top;childLayout=stackLayout;horizontal=1;startSize=26;horizontalStack=0;resizeParent=1;resizeParentMax=0;resizeLast=0;collapsible=1;marginBottom=0;whiteSpace=wrap;html=1;fillColor=#a20025;fontColor=#ffffff;strokeColor=#6F0000;" vertex="1" parent="1">
          <mxGeometry x="970" y="230" width="190" height="130" as="geometry" />
        </mxCell>
        <mxCell id="qIsz3Cx6Iyp0Fplk25JB-71" value="&lt;div&gt;+ text: string&lt;/div&gt;&lt;div&gt;+ author: string&lt;/div&gt;&lt;div&gt;+ audience: string&lt;/div&gt;" style="text;strokeColor=none;fillColor=none;align=left;verticalAlign=top;spacingLeft=4;spacingRight=4;overflow=hidden;rotatable=0;points=[[0,0.5],[1,0.5]];portConstraint=eastwest;whiteSpace=wrap;html=1;" vertex="1" parent="qIsz3Cx6Iyp0Fplk25JB-70">
          <mxGeometry y="26" width="190" height="54" as="geometry" />
        </mxCell>
        <mxCell id="qIsz3Cx6Iyp0Fplk25JB-72" value="" style="line;strokeWidth=1;fillColor=none;align=left;verticalAlign=middle;spacingTop=-1;spacingLeft=3;spacingRight=3;rotatable=0;labelPosition=right;points=[];portConstraint=eastwest;strokeColor=inherit;" vertex="1" parent="qIsz3Cx6Iyp0Fplk25JB-70">
          <mxGeometry y="80" width="190" height="8" as="geometry" />
        </mxCell>
        <mxCell id="qIsz3Cx6Iyp0Fplk25JB-73" value="+ createAnnouncement(): void" style="text;strokeColor=none;fillColor=none;align=left;verticalAlign=top;spacingLeft=4;spacingRight=4;overflow=hidden;rotatable=0;points=[[0,0.5],[1,0.5]];portConstraint=eastwest;whiteSpace=wrap;html=1;" vertex="1" parent="qIsz3Cx6Iyp0Fplk25JB-70">
          <mxGeometry y="88" width="190" height="42" as="geometry" />
        </mxCell>
        <mxCell id="qIsz3Cx6Iyp0Fplk25JB-77" value="NoteSearcher" style="swimlane;fontStyle=1;align=center;verticalAlign=top;childLayout=stackLayout;horizontal=1;startSize=26;horizontalStack=0;resizeParent=1;resizeParentMax=0;resizeLast=0;collapsible=1;marginBottom=0;whiteSpace=wrap;html=1;fillColor=#a20025;fontColor=#ffffff;strokeColor=#6F0000;" vertex="1" parent="1">
          <mxGeometry x="370" y="310" width="185" height="120" as="geometry" />
        </mxCell>
        <mxCell id="qIsz3Cx6Iyp0Fplk25JB-78" value="&lt;div&gt;+ degree: string&amp;nbsp;&amp;nbsp;&lt;/div&gt;&lt;div&gt;+ subjectName: string&amp;nbsp;&amp;nbsp;&lt;/div&gt;&lt;div&gt;+ chapterNumber: int&lt;/div&gt;" style="text;strokeColor=none;fillColor=none;align=left;verticalAlign=top;spacingLeft=4;spacingRight=4;overflow=hidden;rotatable=0;points=[[0,0.5],[1,0.5]];portConstraint=eastwest;whiteSpace=wrap;html=1;" vertex="1" parent="qIsz3Cx6Iyp0Fplk25JB-77">
          <mxGeometry y="26" width="185" height="54" as="geometry" />
        </mxCell>
        <mxCell id="qIsz3Cx6Iyp0Fplk25JB-79" value="" style="line;strokeWidth=1;fillColor=none;align=left;verticalAlign=middle;spacingTop=-1;spacingLeft=3;spacingRight=3;rotatable=0;labelPosition=right;points=[];portConstraint=eastwest;strokeColor=inherit;" vertex="1" parent="qIsz3Cx6Iyp0Fplk25JB-77">
          <mxGeometry y="80" width="185" height="10" as="geometry" />
        </mxCell>
        <mxCell id="qIsz3Cx6Iyp0Fplk25JB-80" value="+ searchNotes(): void" style="text;strokeColor=none;fillColor=none;align=left;verticalAlign=top;spacingLeft=4;spacingRight=4;overflow=hidden;rotatable=0;points=[[0,0.5],[1,0.5]];portConstraint=eastwest;whiteSpace=wrap;html=1;" vertex="1" parent="qIsz3Cx6Iyp0Fplk25JB-77">
          <mxGeometry y="90" width="185" height="30" as="geometry" />
        </mxCell>
        <mxCell id="qIsz3Cx6Iyp0Fplk25JB-81" value="NotesUploader" style="swimlane;fontStyle=1;align=center;verticalAlign=top;childLayout=stackLayout;horizontal=1;startSize=26;horizontalStack=0;resizeParent=1;resizeParentMax=0;resizeLast=0;collapsible=1;marginBottom=0;whiteSpace=wrap;html=1;fillColor=#a20025;fontColor=#ffffff;strokeColor=#6F0000;" vertex="1" parent="1">
          <mxGeometry x="370" y="130" width="185" height="130" as="geometry" />
        </mxCell>
        <mxCell id="qIsz3Cx6Iyp0Fplk25JB-82" value="&lt;div&gt;+ subjectName: string&lt;/div&gt;&lt;div&gt;+ title: string&lt;/div&gt;&lt;div&gt;+ chapterNumber: int&lt;/div&gt;&lt;div&gt;+ fileFormat: string&amp;nbsp;&lt;/div&gt;" style="text;strokeColor=none;fillColor=none;align=left;verticalAlign=top;spacingLeft=4;spacingRight=4;overflow=hidden;rotatable=0;points=[[0,0.5],[1,0.5]];portConstraint=eastwest;whiteSpace=wrap;html=1;" vertex="1" parent="qIsz3Cx6Iyp0Fplk25JB-81">
          <mxGeometry y="26" width="185" height="64" as="geometry" />
        </mxCell>
        <mxCell id="qIsz3Cx6Iyp0Fplk25JB-83" value="" style="line;strokeWidth=1;fillColor=none;align=left;verticalAlign=middle;spacingTop=-1;spacingLeft=3;spacingRight=3;rotatable=0;labelPosition=right;points=[];portConstraint=eastwest;strokeColor=inherit;" vertex="1" parent="qIsz3Cx6Iyp0Fplk25JB-81">
          <mxGeometry y="90" width="185" height="10" as="geometry" />
        </mxCell>
        <mxCell id="qIsz3Cx6Iyp0Fplk25JB-84" value="+ uploadNotes(): void" style="text;strokeColor=none;fillColor=none;align=left;verticalAlign=top;spacingLeft=4;spacingRight=4;overflow=hidden;rotatable=0;points=[[0,0.5],[1,0.5]];portConstraint=eastwest;whiteSpace=wrap;html=1;" vertex="1" parent="qIsz3Cx6Iyp0Fplk25JB-81">
          <mxGeometry y="100" width="185" height="30" as="geometry" />
        </mxCell>
        <mxCell id="qIsz3Cx6Iyp0Fplk25JB-87" value="1" style="endArrow=block;endFill=1;html=1;edgeStyle=orthogonalEdgeStyle;align=left;verticalAlign=top;rounded=0;" edge="1" parent="1">
          <mxGeometry x="0.8802" y="20" relative="1" as="geometry">
            <mxPoint x="260" y="59.999999999999986" as="sourcePoint" />
            <mxPoint x="770" y="59.999999999999986" as="targetPoint" />
            <Array as="points">
              <mxPoint x="260" y="59.999999999999986" />
            </Array>
            <mxPoint as="offset" />
          </mxGeometry>
        </mxCell>
        <mxCell id="qIsz3Cx6Iyp0Fplk25JB-88" value="1" style="edgeLabel;resizable=0;html=1;align=left;verticalAlign=bottom;" connectable="0" vertex="1" parent="qIsz3Cx6Iyp0Fplk25JB-87">
          <mxGeometry x="-1" relative="1" as="geometry" />
        </mxCell>
        <mxCell id="qIsz3Cx6Iyp0Fplk25JB-94" value="" style="endArrow=diamondThin;endFill=1;endSize=24;html=1;rounded=0;exitX=1.002;exitY=0.706;exitDx=0;exitDy=0;exitPerimeter=0;entryX=0;entryY=0.5;entryDx=0;entryDy=0;" edge="1" parent="1" source="qIsz3Cx6Iyp0Fplk25JB-82" target="qIsz3Cx6Iyp0Fplk25JB-44">
          <mxGeometry width="160" relative="1" as="geometry">
            <mxPoint x="490" y="310" as="sourcePoint" />
            <mxPoint x="640" y="110" as="targetPoint" />
            <Array as="points">
              <mxPoint x="640" y="200" />
              <mxPoint x="640" y="120" />
            </Array>
          </mxGeometry>
        </mxCell>
        <mxCell id="qIsz3Cx6Iyp0Fplk25JB-95" value="" style="endArrow=diamondThin;endFill=1;endSize=24;html=1;rounded=0;exitX=0.98;exitY=0.314;exitDx=0;exitDy=0;exitPerimeter=0;" edge="1" parent="1" source="qIsz3Cx6Iyp0Fplk25JB-78">
          <mxGeometry width="160" relative="1" as="geometry">
            <mxPoint x="490" y="310" as="sourcePoint" />
            <mxPoint x="800" y="140" as="targetPoint" />
            <Array as="points">
              <mxPoint x="720" y="353" />
              <mxPoint x="720" y="270" />
              <mxPoint x="720" y="190" />
              <mxPoint x="800" y="190" />
            </Array>
          </mxGeometry>
        </mxCell>
        <mxCell id="qIsz3Cx6Iyp0Fplk25JB-96" value="" style="endArrow=diamondThin;endFill=1;endSize=24;html=1;rounded=0;exitX=0.5;exitY=0;exitDx=0;exitDy=0;entryX=1;entryY=0.5;entryDx=0;entryDy=0;" edge="1" parent="1" source="qIsz3Cx6Iyp0Fplk25JB-70" target="qIsz3Cx6Iyp0Fplk25JB-42">
          <mxGeometry width="160" relative="1" as="geometry">
            <mxPoint x="490" y="310" as="sourcePoint" />
            <mxPoint x="1065" y="70" as="targetPoint" />
            <Array as="points">
              <mxPoint x="1065" y="68" />
            </Array>
          </mxGeometry>
        </mxCell>
        <mxCell id="qIsz3Cx6Iyp0Fplk25JB-97" value="" style="endArrow=diamondThin;endFill=1;endSize=24;html=1;rounded=0;exitX=1;exitY=0.5;exitDx=0;exitDy=0;entryX=0.388;entryY=1.377;entryDx=0;entryDy=0;entryPerimeter=0;" edge="1" parent="1" source="qIsz3Cx6Iyp0Fplk25JB-65" target="qIsz3Cx6Iyp0Fplk25JB-44">
          <mxGeometry width="160" relative="1" as="geometry">
            <mxPoint x="490" y="310" as="sourcePoint" />
            <mxPoint x="650" y="310" as="targetPoint" />
            <Array as="points">
              <mxPoint x="760" y="550" />
              <mxPoint x="760" y="400" />
              <mxPoint x="844" y="400" />
            </Array>
          </mxGeometry>
        </mxCell>
        <mxCell id="qIsz3Cx6Iyp0Fplk25JB-98" value="" style="endArrow=diamondThin;endFill=1;endSize=24;html=1;rounded=0;exitX=0.409;exitY=-0.021;exitDx=0;exitDy=0;exitPerimeter=0;entryX=0.771;entryY=1.298;entryDx=0;entryDy=0;entryPerimeter=0;" edge="1" parent="1" source="qIsz3Cx6Iyp0Fplk25JB-61" target="qIsz3Cx6Iyp0Fplk25JB-44">
          <mxGeometry width="160" relative="1" as="geometry">
            <mxPoint x="490" y="310" as="sourcePoint" />
            <mxPoint x="650" y="310" as="targetPoint" />
          </mxGeometry>
        </mxCell>
        <mxCell id="qIsz3Cx6Iyp0Fplk25JB-99" value="0..*" style="text;strokeColor=none;fillColor=none;align=left;verticalAlign=middle;spacingLeft=4;spacingRight=4;overflow=hidden;points=[[0,0.5],[1,0.5]];portConstraint=eastwest;rotatable=0;whiteSpace=wrap;html=1;" vertex="1" parent="1">
          <mxGeometry x="556" y="170" width="80" height="30" as="geometry" />
        </mxCell>
        <mxCell id="qIsz3Cx6Iyp0Fplk25JB-100" value="1" style="text;strokeColor=none;fillColor=none;align=left;verticalAlign=middle;spacingLeft=4;spacingRight=4;overflow=hidden;points=[[0,0.5],[1,0.5]];portConstraint=eastwest;rotatable=0;whiteSpace=wrap;html=1;" vertex="1" parent="1">
          <mxGeometry x="720" y="90" width="80" height="30" as="geometry" />
        </mxCell>
        <mxCell id="qIsz3Cx6Iyp0Fplk25JB-114" value="1" style="text;strokeColor=none;fillColor=none;align=left;verticalAlign=middle;spacingLeft=4;spacingRight=4;overflow=hidden;points=[[0,0.5],[1,0.5]];portConstraint=eastwest;rotatable=0;whiteSpace=wrap;html=1;" vertex="1" parent="1">
          <mxGeometry x="760" y="150" width="80" height="30" as="geometry" />
        </mxCell>
        <mxCell id="qIsz3Cx6Iyp0Fplk25JB-119" value="1" style="text;strokeColor=none;fillColor=none;align=left;verticalAlign=middle;spacingLeft=4;spacingRight=4;overflow=hidden;points=[[0,0.5],[1,0.5]];portConstraint=eastwest;rotatable=0;whiteSpace=wrap;html=1;" vertex="1" parent="1">
          <mxGeometry x="820" y="140" width="80" height="30" as="geometry" />
        </mxCell>
        <mxCell id="qIsz3Cx6Iyp0Fplk25JB-120" value="1" style="text;strokeColor=none;fillColor=none;align=left;verticalAlign=middle;spacingLeft=4;spacingRight=4;overflow=hidden;points=[[0,0.5],[1,0.5]];portConstraint=eastwest;rotatable=0;whiteSpace=wrap;html=1;" vertex="1" parent="1">
          <mxGeometry x="880" y="140" width="80" height="30" as="geometry" />
        </mxCell>
        <mxCell id="qIsz3Cx6Iyp0Fplk25JB-121" value="1" style="text;strokeColor=none;fillColor=none;align=left;verticalAlign=middle;spacingLeft=4;spacingRight=4;overflow=hidden;points=[[0,0.5],[1,0.5]];portConstraint=eastwest;rotatable=0;whiteSpace=wrap;html=1;" vertex="1" parent="1">
          <mxGeometry x="976.25" y="30" width="80" height="30" as="geometry" />
        </mxCell>
        <mxCell id="qIsz3Cx6Iyp0Fplk25JB-122" value="Associate with" style="text;strokeColor=none;fillColor=none;align=left;verticalAlign=middle;spacingLeft=4;spacingRight=4;overflow=hidden;points=[[0,0.5],[1,0.5]];portConstraint=eastwest;rotatable=0;whiteSpace=wrap;html=1;" vertex="1" parent="1">
          <mxGeometry x="450" y="20" width="120" height="30" as="geometry" />
        </mxCell>
        <mxCell id="qIsz3Cx6Iyp0Fplk25JB-123" value="upload within" style="text;strokeColor=none;fillColor=none;align=left;verticalAlign=middle;spacingLeft=4;spacingRight=4;overflow=hidden;points=[[0,0.5],[1,0.5]];portConstraint=eastwest;rotatable=0;whiteSpace=wrap;html=1;" vertex="1" parent="1">
          <mxGeometry x="590" y="80" width="100" height="30" as="geometry" />
        </mxCell>
        <mxCell id="qIsz3Cx6Iyp0Fplk25JB-124" value="share within" style="text;strokeColor=none;fillColor=none;align=left;verticalAlign=middle;spacingLeft=4;spacingRight=4;overflow=hidden;points=[[0,0.5],[1,0.5]];portConstraint=eastwest;rotatable=0;whiteSpace=wrap;html=1;" vertex="1" parent="1">
          <mxGeometry x="635" y="260" width="100" height="30" as="geometry" />
        </mxCell>
        <mxCell id="qIsz3Cx6Iyp0Fplk25JB-125" value="exchange within" style="text;strokeColor=none;fillColor=none;align=left;verticalAlign=middle;spacingLeft=4;spacingRight=4;overflow=hidden;points=[[0,0.5],[1,0.5]];portConstraint=eastwest;rotatable=0;whiteSpace=wrap;html=1;" vertex="1" parent="1">
          <mxGeometry x="750" y="360" width="100" height="30" as="geometry" />
        </mxCell>
        <mxCell id="qIsz3Cx6Iyp0Fplk25JB-127" value="create within" style="text;strokeColor=none;fillColor=none;align=left;verticalAlign=middle;spacingLeft=4;spacingRight=4;overflow=hidden;points=[[0,0.5],[1,0.5]];portConstraint=eastwest;rotatable=0;whiteSpace=wrap;html=1;" vertex="1" parent="1">
          <mxGeometry x="1080" y="180" width="100" height="30" as="geometry" />
        </mxCell>
        <mxCell id="qIsz3Cx6Iyp0Fplk25JB-128" value="connect within" style="text;strokeColor=none;fillColor=none;align=left;verticalAlign=middle;spacingLeft=4;spacingRight=4;overflow=hidden;points=[[0,0.5],[1,0.5]];portConstraint=eastwest;rotatable=0;whiteSpace=wrap;html=1;" vertex="1" parent="1">
          <mxGeometry x="930" y="420" width="100" height="30" as="geometry" />
        </mxCell>
        <mxCell id="qIsz3Cx6Iyp0Fplk25JB-130" value="0..*" style="text;strokeColor=none;fillColor=none;align=left;verticalAlign=middle;spacingLeft=4;spacingRight=4;overflow=hidden;points=[[0,0.5],[1,0.5]];portConstraint=eastwest;rotatable=0;whiteSpace=wrap;html=1;" vertex="1" parent="1">
          <mxGeometry x="563.75" y="320" width="80" height="30" as="geometry" />
        </mxCell>
        <mxCell id="qIsz3Cx6Iyp0Fplk25JB-134" value="0..*" style="text;strokeColor=none;fillColor=none;align=left;verticalAlign=middle;spacingLeft=4;spacingRight=4;overflow=hidden;points=[[0,0.5],[1,0.5]];portConstraint=eastwest;rotatable=0;whiteSpace=wrap;html=1;" vertex="1" parent="1">
          <mxGeometry x="697.5" y="520" width="80" height="30" as="geometry" />
        </mxCell>
        <mxCell id="qIsz3Cx6Iyp0Fplk25JB-135" value="0..*" style="text;strokeColor=none;fillColor=none;align=left;verticalAlign=middle;spacingLeft=4;spacingRight=4;overflow=hidden;points=[[0,0.5],[1,0.5]];portConstraint=eastwest;rotatable=0;whiteSpace=wrap;html=1;" vertex="1" parent="1">
          <mxGeometry x="840" y="440" width="80" height="30" as="geometry" />
        </mxCell>
        <mxCell id="qIsz3Cx6Iyp0Fplk25JB-136" value="0..*" style="text;strokeColor=none;fillColor=none;align=left;verticalAlign=middle;spacingLeft=4;spacingRight=4;overflow=hidden;points=[[0,0.5],[1,0.5]];portConstraint=eastwest;rotatable=0;whiteSpace=wrap;html=1;" vertex="1" parent="1">
          <mxGeometry x="1010" y="190" width="80" height="30" as="geometry" />
        </mxCell>
      </root>
    </mxGraphModel>
  </diagram>
</mxfile>
